<mxfile host="app.diagrams.net" modified="2024-05-25T22:52:57.757Z" agent="Mozilla/5.0 (Macintosh; Intel Mac OS X 10_15_7) AppleWebKit/537.36 (KHTML, like Gecko) Chrome/124.0.0.0 Safari/537.36" etag="3H3iVdeHh2jPUqGFx1_b" version="24.4.8" type="github">
  <diagram id="3228e29e-7158-1315-38df-8450db1d8a1d" name="Page-1">
    <mxGraphModel dx="1633" dy="1015" grid="0" gridSize="10" guides="1" tooltips="1" connect="1" arrows="1" fold="1" page="1" pageScale="1" pageWidth="900" pageHeight="500" background="#EFF1F3" math="0" shadow="0">
      <root>
        <mxCell id="0" />
        <mxCell id="1" parent="0" />
        <mxCell id="fzVR-iU8v4vnvz3ay1Lp-19" value="" style="rounded=1;whiteSpace=wrap;html=1;fillColor=none;strokeWidth=5;dashed=1;" vertex="1" parent="1">
          <mxGeometry x="297.01" y="51.000000000000014" width="97" height="363" as="geometry" />
        </mxCell>
        <mxCell id="fzVR-iU8v4vnvz3ay1Lp-3" value="" style="group" vertex="1" connectable="0" parent="1">
          <mxGeometry x="102.005" y="76.00500000000001" width="97.32999999999998" height="73" as="geometry" />
        </mxCell>
        <mxCell id="BWqk9ZWbY-ouSCO-_PN_-2" value="" style="triangle;whiteSpace=wrap;html=1;rotation=-90;strokeColor=none;fillColor=#525E80;" parent="fzVR-iU8v4vnvz3ay1Lp-3" vertex="1">
          <mxGeometry x="12.16500000000002" y="-12.16500000000002" width="73" height="97.33" as="geometry" />
        </mxCell>
        <mxCell id="BWqk9ZWbY-ouSCO-_PN_-3" value="&lt;font style=&quot;font-size: 24px;&quot; color=&quot;#ffffff&quot;&gt;M&lt;/font&gt;" style="text;html=1;align=center;verticalAlign=middle;whiteSpace=wrap;rounded=0;" parent="fzVR-iU8v4vnvz3ay1Lp-3" vertex="1">
          <mxGeometry x="18.66500000000002" y="30.83499999999998" width="60" height="30" as="geometry" />
        </mxCell>
        <mxCell id="fzVR-iU8v4vnvz3ay1Lp-4" value="" style="group" vertex="1" connectable="0" parent="1">
          <mxGeometry x="111" y="319" width="80" height="80" as="geometry" />
        </mxCell>
        <mxCell id="BWqk9ZWbY-ouSCO-_PN_-4" value="" style="ellipse;whiteSpace=wrap;html=1;aspect=fixed;strokeColor=none;fillColor=#68AB9F;" parent="fzVR-iU8v4vnvz3ay1Lp-4" vertex="1">
          <mxGeometry width="80" height="80" as="geometry" />
        </mxCell>
        <mxCell id="BWqk9ZWbY-ouSCO-_PN_-5" value="&lt;font style=&quot;font-size: 24px;&quot; color=&quot;#ffffff&quot;&gt;G&lt;/font&gt;" style="text;html=1;align=center;verticalAlign=middle;whiteSpace=wrap;rounded=0;" parent="fzVR-iU8v4vnvz3ay1Lp-4" vertex="1">
          <mxGeometry x="10" y="25" width="60" height="30" as="geometry" />
        </mxCell>
        <mxCell id="fzVR-iU8v4vnvz3ay1Lp-5" value="" style="group" vertex="1" connectable="0" parent="1">
          <mxGeometry x="110.16999999999999" y="195" width="81" height="75" as="geometry" />
        </mxCell>
        <mxCell id="BWqk9ZWbY-ouSCO-_PN_-8" value="" style="rounded=1;whiteSpace=wrap;html=1;strokeColor=none;fillColor=#C89931;" parent="fzVR-iU8v4vnvz3ay1Lp-5" vertex="1">
          <mxGeometry width="81" height="75" as="geometry" />
        </mxCell>
        <mxCell id="BWqk9ZWbY-ouSCO-_PN_-12" value="&lt;font style=&quot;font-size: 24px;&quot; color=&quot;#ffffff&quot;&gt;P&lt;/font&gt;" style="text;html=1;align=center;verticalAlign=middle;whiteSpace=wrap;rounded=0;" parent="fzVR-iU8v4vnvz3ay1Lp-5" vertex="1">
          <mxGeometry x="10.5" y="22.5" width="60" height="30" as="geometry" />
        </mxCell>
        <mxCell id="fzVR-iU8v4vnvz3ay1Lp-8" style="edgeStyle=none;curved=1;rounded=0;orthogonalLoop=1;jettySize=auto;html=1;exitX=0.5;exitY=1;exitDx=0;exitDy=0;fontSize=12;startSize=8;endSize=8;strokeWidth=2;strokeColor=#4D4D4D;endArrow=none;endFill=0;" edge="1" parent="1" source="BWqk9ZWbY-ouSCO-_PN_-8" target="BWqk9ZWbY-ouSCO-_PN_-4">
          <mxGeometry relative="1" as="geometry" />
        </mxCell>
        <mxCell id="fzVR-iU8v4vnvz3ay1Lp-9" style="edgeStyle=none;curved=1;rounded=0;orthogonalLoop=1;jettySize=auto;html=1;exitX=0.5;exitY=0;exitDx=0;exitDy=0;fontSize=12;startSize=8;endSize=8;strokeWidth=2;strokeColor=#4D4D4D;endArrow=none;endFill=0;" edge="1" parent="1" source="BWqk9ZWbY-ouSCO-_PN_-8">
          <mxGeometry relative="1" as="geometry">
            <mxPoint x="151.01" y="149.01" as="targetPoint" />
          </mxGeometry>
        </mxCell>
        <mxCell id="fzVR-iU8v4vnvz3ay1Lp-13" value="" style="group" vertex="1" connectable="0" parent="1">
          <mxGeometry x="305.51" y="203" width="88.5" height="154" as="geometry" />
        </mxCell>
        <mxCell id="fzVR-iU8v4vnvz3ay1Lp-14" value="" style="ellipse;whiteSpace=wrap;html=1;aspect=fixed;strokeColor=none;fillColor=#B3B3B3;" vertex="1" parent="fzVR-iU8v4vnvz3ay1Lp-13">
          <mxGeometry width="80" height="80" as="geometry" />
        </mxCell>
        <mxCell id="fzVR-iU8v4vnvz3ay1Lp-15" value="&lt;font style=&quot;font-size: 24px;&quot; color=&quot;#ffffff&quot;&gt;G&lt;/font&gt;" style="text;html=1;align=center;verticalAlign=middle;whiteSpace=wrap;rounded=0;container=0;" vertex="1" parent="fzVR-iU8v4vnvz3ay1Lp-13">
          <mxGeometry x="10" y="25" width="60" height="30" as="geometry" />
        </mxCell>
        <mxCell id="fzVR-iU8v4vnvz3ay1Lp-21" style="edgeStyle=none;curved=1;rounded=0;orthogonalLoop=1;jettySize=auto;html=1;exitX=1;exitY=0.5;exitDx=0;exitDy=0;fontSize=12;startSize=8;endSize=8;endArrow=none;endFill=0;" edge="1" parent="1" source="BWqk9ZWbY-ouSCO-_PN_-8" target="fzVR-iU8v4vnvz3ay1Lp-19">
          <mxGeometry relative="1" as="geometry" />
        </mxCell>
        <mxCell id="fzVR-iU8v4vnvz3ay1Lp-22" value="&lt;font color=&quot;#4d4d4d&quot;&gt;&lt;span style=&quot;font-size: 18px;&quot;&gt;P的本地队列&lt;/span&gt;&lt;/font&gt;" style="text;html=1;align=center;verticalAlign=middle;whiteSpace=wrap;rounded=0;" vertex="1" parent="1">
          <mxGeometry x="278.26" y="429.01" width="136.5" height="30" as="geometry" />
        </mxCell>
        <mxCell id="fzVR-iU8v4vnvz3ay1Lp-17" value="" style="ellipse;whiteSpace=wrap;html=1;aspect=fixed;strokeColor=none;fillColor=#B3B3B3;" vertex="1" parent="1">
          <mxGeometry x="306.51" y="318" width="80" height="80" as="geometry" />
        </mxCell>
        <mxCell id="fzVR-iU8v4vnvz3ay1Lp-18" value="&lt;font style=&quot;font-size: 24px;&quot; color=&quot;#ffffff&quot;&gt;G&lt;/font&gt;" style="text;html=1;align=center;verticalAlign=middle;whiteSpace=wrap;rounded=0;" vertex="1" parent="1">
          <mxGeometry x="316.51" y="343" width="60" height="30" as="geometry" />
        </mxCell>
        <mxCell id="fzVR-iU8v4vnvz3ay1Lp-11" value="" style="ellipse;whiteSpace=wrap;html=1;aspect=fixed;strokeColor=none;fillColor=#B3B3B3;" vertex="1" parent="1">
          <mxGeometry x="306.51" y="79.00000000000001" width="80" height="80" as="geometry" />
        </mxCell>
        <mxCell id="fzVR-iU8v4vnvz3ay1Lp-12" value="&lt;font style=&quot;font-size: 24px;&quot; color=&quot;#ffffff&quot;&gt;G&lt;/font&gt;" style="text;html=1;align=center;verticalAlign=middle;whiteSpace=wrap;rounded=0;" vertex="1" parent="1">
          <mxGeometry x="316.51" y="104.00000000000001" width="60" height="30" as="geometry" />
        </mxCell>
        <mxCell id="fzVR-iU8v4vnvz3ay1Lp-23" value="" style="rounded=1;whiteSpace=wrap;html=1;fillColor=none;strokeWidth=5;dashed=1;" vertex="1" parent="1">
          <mxGeometry x="680.01" y="48.000000000000014" width="97" height="363" as="geometry" />
        </mxCell>
        <mxCell id="fzVR-iU8v4vnvz3ay1Lp-24" value="" style="group" vertex="1" connectable="0" parent="1">
          <mxGeometry x="485.005" y="73.00500000000001" width="97.32999999999998" height="73" as="geometry" />
        </mxCell>
        <mxCell id="fzVR-iU8v4vnvz3ay1Lp-25" value="" style="triangle;whiteSpace=wrap;html=1;rotation=-90;strokeColor=none;fillColor=#525E80;" vertex="1" parent="fzVR-iU8v4vnvz3ay1Lp-24">
          <mxGeometry x="12.16500000000002" y="-12.16500000000002" width="73" height="97.33" as="geometry" />
        </mxCell>
        <mxCell id="fzVR-iU8v4vnvz3ay1Lp-26" value="&lt;font style=&quot;font-size: 24px;&quot; color=&quot;#ffffff&quot;&gt;M&lt;/font&gt;" style="text;html=1;align=center;verticalAlign=middle;whiteSpace=wrap;rounded=0;" vertex="1" parent="fzVR-iU8v4vnvz3ay1Lp-24">
          <mxGeometry x="18.66500000000002" y="30.83499999999998" width="60" height="30" as="geometry" />
        </mxCell>
        <mxCell id="fzVR-iU8v4vnvz3ay1Lp-27" value="" style="group" vertex="1" connectable="0" parent="1">
          <mxGeometry x="494" y="316" width="80" height="80" as="geometry" />
        </mxCell>
        <mxCell id="fzVR-iU8v4vnvz3ay1Lp-28" value="" style="ellipse;whiteSpace=wrap;html=1;aspect=fixed;strokeColor=none;fillColor=#68AB9F;" vertex="1" parent="fzVR-iU8v4vnvz3ay1Lp-27">
          <mxGeometry width="80" height="80" as="geometry" />
        </mxCell>
        <mxCell id="fzVR-iU8v4vnvz3ay1Lp-29" value="&lt;font style=&quot;font-size: 24px;&quot; color=&quot;#ffffff&quot;&gt;G&lt;/font&gt;" style="text;html=1;align=center;verticalAlign=middle;whiteSpace=wrap;rounded=0;" vertex="1" parent="fzVR-iU8v4vnvz3ay1Lp-27">
          <mxGeometry x="10" y="25" width="60" height="30" as="geometry" />
        </mxCell>
        <mxCell id="fzVR-iU8v4vnvz3ay1Lp-30" value="" style="group" vertex="1" connectable="0" parent="1">
          <mxGeometry x="493.16999999999996" y="192" width="81" height="75" as="geometry" />
        </mxCell>
        <mxCell id="fzVR-iU8v4vnvz3ay1Lp-31" value="" style="rounded=1;whiteSpace=wrap;html=1;strokeColor=none;fillColor=#C89931;" vertex="1" parent="fzVR-iU8v4vnvz3ay1Lp-30">
          <mxGeometry width="81" height="75" as="geometry" />
        </mxCell>
        <mxCell id="fzVR-iU8v4vnvz3ay1Lp-32" value="&lt;font style=&quot;font-size: 24px;&quot; color=&quot;#ffffff&quot;&gt;P&lt;/font&gt;" style="text;html=1;align=center;verticalAlign=middle;whiteSpace=wrap;rounded=0;" vertex="1" parent="fzVR-iU8v4vnvz3ay1Lp-30">
          <mxGeometry x="10.5" y="22.5" width="60" height="30" as="geometry" />
        </mxCell>
        <mxCell id="fzVR-iU8v4vnvz3ay1Lp-33" style="edgeStyle=none;curved=1;rounded=0;orthogonalLoop=1;jettySize=auto;html=1;exitX=0.5;exitY=1;exitDx=0;exitDy=0;fontSize=12;startSize=8;endSize=8;strokeWidth=2;strokeColor=#4D4D4D;endArrow=none;endFill=0;" edge="1" parent="1" source="fzVR-iU8v4vnvz3ay1Lp-31" target="fzVR-iU8v4vnvz3ay1Lp-28">
          <mxGeometry relative="1" as="geometry" />
        </mxCell>
        <mxCell id="fzVR-iU8v4vnvz3ay1Lp-34" style="edgeStyle=none;curved=1;rounded=0;orthogonalLoop=1;jettySize=auto;html=1;exitX=0.5;exitY=0;exitDx=0;exitDy=0;fontSize=12;startSize=8;endSize=8;strokeWidth=2;strokeColor=#4D4D4D;endArrow=none;endFill=0;" edge="1" parent="1" source="fzVR-iU8v4vnvz3ay1Lp-31">
          <mxGeometry relative="1" as="geometry">
            <mxPoint x="534.01" y="146.01" as="targetPoint" />
          </mxGeometry>
        </mxCell>
        <mxCell id="fzVR-iU8v4vnvz3ay1Lp-35" value="" style="group" vertex="1" connectable="0" parent="1">
          <mxGeometry x="688.51" y="200" width="88.5" height="154" as="geometry" />
        </mxCell>
        <mxCell id="fzVR-iU8v4vnvz3ay1Lp-36" value="" style="ellipse;whiteSpace=wrap;html=1;aspect=fixed;strokeColor=none;fillColor=#B3B3B3;" vertex="1" parent="fzVR-iU8v4vnvz3ay1Lp-35">
          <mxGeometry width="80" height="80" as="geometry" />
        </mxCell>
        <mxCell id="fzVR-iU8v4vnvz3ay1Lp-37" value="&lt;font style=&quot;font-size: 24px;&quot; color=&quot;#ffffff&quot;&gt;G&lt;/font&gt;" style="text;html=1;align=center;verticalAlign=middle;whiteSpace=wrap;rounded=0;container=0;" vertex="1" parent="fzVR-iU8v4vnvz3ay1Lp-35">
          <mxGeometry x="10" y="25" width="60" height="30" as="geometry" />
        </mxCell>
        <mxCell id="fzVR-iU8v4vnvz3ay1Lp-38" style="edgeStyle=none;curved=1;rounded=0;orthogonalLoop=1;jettySize=auto;html=1;exitX=1;exitY=0.5;exitDx=0;exitDy=0;fontSize=12;startSize=8;endSize=8;endArrow=none;endFill=0;" edge="1" parent="1" source="fzVR-iU8v4vnvz3ay1Lp-31" target="fzVR-iU8v4vnvz3ay1Lp-23">
          <mxGeometry relative="1" as="geometry" />
        </mxCell>
        <mxCell id="fzVR-iU8v4vnvz3ay1Lp-39" value="&lt;font color=&quot;#4d4d4d&quot;&gt;&lt;span style=&quot;font-size: 18px;&quot;&gt;P的本地队列&lt;/span&gt;&lt;/font&gt;" style="text;html=1;align=center;verticalAlign=middle;whiteSpace=wrap;rounded=0;" vertex="1" parent="1">
          <mxGeometry x="661.26" y="426.01" width="136.5" height="30" as="geometry" />
        </mxCell>
        <mxCell id="fzVR-iU8v4vnvz3ay1Lp-40" value="" style="ellipse;whiteSpace=wrap;html=1;aspect=fixed;strokeColor=none;fillColor=#B3B3B3;" vertex="1" parent="1">
          <mxGeometry x="689.51" y="315" width="80" height="80" as="geometry" />
        </mxCell>
        <mxCell id="fzVR-iU8v4vnvz3ay1Lp-41" value="&lt;font style=&quot;font-size: 24px;&quot; color=&quot;#ffffff&quot;&gt;G&lt;/font&gt;" style="text;html=1;align=center;verticalAlign=middle;whiteSpace=wrap;rounded=0;" vertex="1" parent="1">
          <mxGeometry x="699.51" y="340" width="60" height="30" as="geometry" />
        </mxCell>
        <mxCell id="fzVR-iU8v4vnvz3ay1Lp-42" value="" style="ellipse;whiteSpace=wrap;html=1;aspect=fixed;strokeColor=none;fillColor=#B3B3B3;" vertex="1" parent="1">
          <mxGeometry x="689.51" y="76.00000000000001" width="80" height="80" as="geometry" />
        </mxCell>
        <mxCell id="fzVR-iU8v4vnvz3ay1Lp-43" value="&lt;font style=&quot;font-size: 24px;&quot; color=&quot;#ffffff&quot;&gt;G&lt;/font&gt;" style="text;html=1;align=center;verticalAlign=middle;whiteSpace=wrap;rounded=0;" vertex="1" parent="1">
          <mxGeometry x="699.51" y="101.00000000000001" width="60" height="30" as="geometry" />
        </mxCell>
      </root>
    </mxGraphModel>
  </diagram>
</mxfile>
